<mxfile host="65bd71144e">
    <diagram id="HIP3nbAZw_EuaXWnEj3U" name="Page-1">
        <mxGraphModel dx="1002" dy="525" grid="1" gridSize="10" guides="1" tooltips="1" connect="1" arrows="1" fold="1" page="1" pageScale="1" pageWidth="850" pageHeight="1100" math="0" shadow="0">
            <root>
                <mxCell id="0"/>
                <mxCell id="1" parent="0"/>
                <mxCell id="7" value="http://ics2o.mths.ca" style="swimlane;whiteSpace=wrap;html=1;fillColor=#dae8fc;strokeColor=#6c8ebf;swimlaneFillColor=light-dark(#FFFBF3,#EDEDED);" parent="1" vertex="1">
                    <mxGeometry x="40" y="40" width="760" height="480" as="geometry"/>
                </mxCell>
                <mxCell id="8" value="&lt;font style=&quot;font-size: 18px;&quot;&gt;Volume of a Sphere&lt;/font&gt;" style="text;html=1;align=left;verticalAlign=middle;resizable=0;points=[];autosize=1;strokeColor=none;fillColor=none;" vertex="1" parent="7">
                    <mxGeometry x="20" y="40" width="180" height="40" as="geometry"/>
                </mxCell>
                <mxCell id="10" value="&lt;font style=&quot;font-size: 18px; color: light-dark(rgb(222, 180, 27), rgb(237, 237, 237));&quot;&gt;V = 4/3πr³&lt;/font&gt;" style="text;html=1;align=left;verticalAlign=middle;resizable=0;points=[];autosize=1;strokeColor=none;fillColor=none;" vertex="1" parent="7">
                    <mxGeometry x="20" y="80" width="110" height="40" as="geometry"/>
                </mxCell>
                <mxCell id="11" value="&lt;font style=&quot;font-size: 15px;&quot;&gt;Please enter integers for radius&lt;/font&gt;" style="text;html=1;align=left;verticalAlign=middle;resizable=0;points=[];autosize=1;strokeColor=none;fillColor=none;" vertex="1" parent="7">
                    <mxGeometry x="20" y="135" width="230" height="30" as="geometry"/>
                </mxCell>
                <mxCell id="12" value="&lt;font style=&quot;font-size: 17px;&quot;&gt;Radius:&amp;nbsp; &amp;nbsp; &amp;nbsp; &amp;nbsp; &amp;nbsp; &amp;nbsp; &amp;nbsp; &amp;nbsp; &amp;nbsp; &amp;nbsp; &amp;nbsp; &amp;nbsp; &amp;nbsp; &amp;nbsp; &amp;nbsp; &amp;nbsp; &amp;nbsp; &amp;nbsp; mm&lt;/font&gt;" style="text;html=1;align=left;verticalAlign=middle;resizable=0;points=[];autosize=1;strokeColor=none;fillColor=none;" vertex="1" parent="7">
                    <mxGeometry x="20" y="175" width="280" height="30" as="geometry"/>
                </mxCell>
                <mxCell id="13" value="" style="rounded=1;whiteSpace=wrap;html=1;" vertex="1" parent="7">
                    <mxGeometry x="90" y="180" width="150" height="20" as="geometry"/>
                </mxCell>
                <mxCell id="14" value="&lt;font style=&quot;font-size: 20px;&quot;&gt;Calculate&lt;/font&gt;" style="rounded=1;whiteSpace=wrap;html=1;labelBackgroundColor=none;fillColor=#FFD67E;" vertex="1" parent="7">
                    <mxGeometry x="20" y="230" width="170" height="40" as="geometry"/>
                </mxCell>
                <mxCell id="15" value="&lt;font style=&quot;font-size: 18px;&quot;&gt;The volume of a sphere is: xx mm³&lt;/font&gt;&lt;span style=&quot;font-family: monospace; font-size: 0px;&quot;&gt;%3CmxGraphModel%3E%3Croot%3E%3CmxCell%20id%3D%220%22%2F%3E%3CmxCell%20id%3D%221%22%20parent%3D%220%22%2F%3E%3CmxCell%20id%3D%222%22%20value%3D%22%26lt%3Bfont%20style%3D%26quot%3Bfont-size%3A%2018px%3B%26quot%3B%26gt%3BVolume%20of%20a%20Sphere%26lt%3B%2Ffont%26gt%3B%22%20style%3D%22text%3Bhtml%3D1%3Balign%3Dleft%3BverticalAlign%3Dmiddle%3Bresizable%3D0%3Bpoints%3D%5B%5D%3Bautosize%3D1%3BstrokeColor%3Dnone%3BfillColor%3Dnone%3B%22%20vertex%3D%221%22%20parent%3D%221%22%3E%3CmxGeometry%20x%3D%2260%22%20y%3D%2280%22%20width%3D%22180%22%20height%3D%2240%22%20as%3D%22geometry%22%2F%3E%3C%2FmxCell%3E%3C%2Froot%3E%3C%2FmxGraphModel%3E&lt;/span&gt;" style="text;html=1;align=left;verticalAlign=middle;resizable=0;points=[];autosize=1;strokeColor=none;fillColor=none;" vertex="1" parent="7">
                    <mxGeometry x="20" y="300" width="300" height="40" as="geometry"/>
                </mxCell>
                <mxCell id="16" value="" style="shape=image;verticalLabelPosition=bottom;labelBackgroundColor=default;verticalAlign=top;aspect=fixed;imageAspect=0;image=data:image/png,iVBORw0KGgoAAAANSUhEUgAAAJoAAACfCAYAAAABMsCkAAAAAXNSR0IArs4c6QAAF5VJREFUeF7tnelvVUUYxl9a28qiVVDRgiKKCygCpeAKBFBExEgwLIob0ZAYNX4x8W8w8YtRY0I04EIUDAQjKgKKgFq0pYBLUUGh0FaxAiKbpVDMb3DwcLnL2bc7b3LSe+Gec2beeWZ7l2e6nDhx4oQYMRoIWANdDNAC1rB5vNKAAZoBQigaMEALRc3mJQZoBgOhaMAATUTYD+3Zs0f27t0r+/fvl7///lsOHDgghw4dkn/++UddHR0d6urs7FS/79Kli5SUlEhZWZm6zj77bHV1795dzjnnHDn33HOlsrJSevbsKb169VK/L2YpOqABkpaWFvntt9/k999/lz/++EPa2toUGAAF4AAkgAXQdO3aVSoqKqS8vFwBCnABGp4D6ADf0aNHpb29XY4cOaLACUgBK6AFvID4wgsvlIsuukguvvhiueSSS6RPnz5FBb6iABrA2rFjh+zatUt27twpvXv3lqqqKtXoND4gAEBBCYAEzIAacLe2tsru3bvlsssuk0svvVQuv/xyBbw0S2qB9ssvv8jWrVtl27Zt0q1bN9WY/fr1Uw3L6BS1MAoC/KamJtUJDh8+LAMGDJCrrrpKrrzyyqiL5/v7UwW05uZmaWxslB9//FFNhTQa1/nnn++74vx+4L59+1TH4GKqvfbaa2XQoEHSt29fv18VyfMSD7Rjx47J5s2b5bvvvhM+0zgDBw5MBLhytTig27Jli+o0Z511lgwePFiGDBmiPidVEgu0v/76SzZu3CgNDQ1qyqEhmB7TJkyrdCSWANXV1TJs2DA577zzElfNxAGNaaWurk6+//57pXiuJCreKVLoWHQqruuvv15GjBihlgdJkcQADXNBbW2tAtiNN94oNTU1ym5VbIJNr76+Xr7++mu1TLj11luVOSbuEnugYa/64osv5KuvvlIAu+mmm4oSYJlAwka3fPlytWO95ZZb5Lbbbou1XS7WQGMxvGbNGmVvoucWwxRpd2Tavn276nAYlL/88ktlHxw9erRcd911dh8R6u9iCTR2XatXr1YW9jFjxqRyke+llfE+/Prrr2qtpl1bjGx0SjwaY8eOjd2uO3ZAY7H76aefqhGMKcHImRrAGA2g8GpkCksMRrjx48erjVJcJDZAo5euWLFCWchREu4hI2dqgLUZLjU2ArkENxedFY/IhAkTlM82aokF0LARsbDFFjZq1KiodRLr9//000/KN0sAQCFZt26dssFNnDhR2RqjlMiBxjCP4TUOyoiyIey8m0iQP//8U66++mo7P1e/0Z0YQy/LkagkMqBhtli2bJmaKidNmqTWHEbya4BdOFEehDI5ETZVH330kZpKJ0+eHIkZJBKgYXx9//33VbgOawgjhTVAiBGA8RLZwRqY8KR77703dCNv6EAj4HDp0qXKZ4fx1UhhDTD6EzQAyLwu7NevX6+WKlOmTFEBmGFJqEDDyLhkyRI1ihGRYMSeBuicxK8RT+eHAFpGt6lTp0r//v39eGTBZ4QGNOKsFi9erCrnZDFbsAYp/wGh4vh3CX3y07f7888/q05/3333qZi9oCUUoFEppstp06aF1oOCVlxYzycKF+t/EAGQzDDvvfeemkaD7vyBAw0rNiPZ9OnTjSvJITqJ1CAAkmVGUEGPuK4WLVqkRjYvG41CVQsUaDh63333XTVdRm0wLKSIOP4/IGC6DNpLgq2NaXTmzJkqgCEICQxoZP288847cscdd6j1hRFnGjh48KBynDOahZETysi5cuVKuf/++5XnwW8JBGgM+QsWLJChQ4fK8OHD/S5zUTyPUQbDbBCNnkuBGzZskE2bNsmsWbN83XjwvkCAxgKTyAJCfIw414Adx7nzp9q7g1AjjMNs3PwU34G2atUqla2N9dmIOw3gOKejRpUmiNcGw/Dtt9/urgJZ7vIVaAy7WJ0ffvhhKS0t9a2QxfQgkm9wnF9zzTWRVfv48ePy5ptvKu8Nyx8/xDeg4UObN2+ePProo4HvkvyoeFyf8cMPP6hs+qgTTohpmz9/vsyePVv5pL2Kb0B744035IYbblC9wIg7DfjhOHf35ux3MUMRz/bII494fqwvQCO+n3UZIShG3GkAIhhcTdgbCeeJixDKxXqNPAQv4hlouDGIdXrsscd83xJ7qVii7j0hcuDgASFJmGkzToKp6vXXX1cxg14c8J6BRiGI3ISUxEg6NQBpDpHQDCZuxRPQ1q5dqwjnzJTpVv3JuY8plA0KuaNuxDXQWLi+9dZbMmfOHBOG7UbzCbuH6N65c+fKQw89lDXNr1B1XAONiAzWEyNHjiz0DvP/KdHAN998o8gDifRwKq6ARnwZczY2FiNONdAsWzbslsPcdlal9O8rsnPHfjkuIqWV/WXogMJpdE7f6OfvsZWyJncav+YKaNjMIFwxGwD3Tbh32ybZvv/4SbD16pDtuw9Lt97DZWDMCR7ZGMBk5NS25hhoxJtj7yGcxIh7DTRv2SC7pbcMjzuyslSR8C94P5zkfTgGGuaMcePGebKpuG+etNy5V7Zt3i4Hu8d/qsymcWynn332mSNzhyOgMZLhi5sxY0ZaWjyaeuzZJpt2HJQelw+VAckhbTxNVwsXLlQUWYxsdsQR0FibsRA0Ydl2VJvnN81bZMNukd7DB0rMl2Q5K0FWG8xFdtdqtoFGkgnMi3Yf7LEpUn27Wp8drZT+QwZIvPeY+ZuBgQemSTtJLbaBht1Ms1+nGgWmcrY1oNnC7djVbAENFhu8AM8884ztQpgfFocGXnzxReUtKESjZQto+DQ5LILdphF3GtAn4rm7O753sfsk57SQD9QW0F599VWVm+lHpGV8VRZsyXDd9OjRI7I8gKBqR2Q1OaFPPPFE3lcUBBo2E5gDyQMw4k4DHK9IwgmmgKAyzt2VzJ+7yC+AqTNfvFpBoH388cfqhA7jPHffKHRWaNqDzjh3X0Jvd+JsJ6nmrrvuyvmggkBjsUfCiVOWQW9FT8/dZJxDbWDXsJnEmpOHSiJLvs1iXqChIKZNdhVG3GmAjHMO4rjgggvcPSAhd2GVYPrMdfBbXqBBIc6Qb/j+3bU2OQCQ6BUD9wheAtaiUPdnk7xAe+211+Tuu+8OlYLSXZPG8y5CatipR5VxHqZW6FAffvihPP74486ARm98++235amnngqzvKl5F4tjDN1hsCnGRWkvv/yyPPjgg1nP7Mo5ohF3Bm2S4dBw14xEucA1Vky09nB2XHHFFVnj1HICDbMGRCOGdso50DBiklCN0otJoL0iaSmbmSMn0AhwZH2WVNsPmd+4zbj4DHGJvvR33EJ81t/lhEjniU7h3/X/aaDw3SpWlxJEefriN5g0yO4uLy9Xt5SUlCjSG35TUlIqpaUnv3Pp/8OQy/ckG3Th62Cdli3/MyvQ2tvb5aWXXpJnn302Vh0SQECDDlM1F58Bj/4OqPjMvyHWxtMNav3LZ+t1Egglp0CTCSAr86IVePozf2ECohwQ6FFeDVjKZP2swa07An/5DX814Ch/WVmZuvgMcPV3/TdWDSQiL7zwgjz99NNSUVFxWtGyAg3uWQjZorCfkYIPgAC7vviuQYWyMxWuG0T/1SNF2I1AGYlCxjirRzM3ZdCdR4/IugPpzmXtZLyHRtV64bO+ohgdsadBwJjJhZsVaMy19Mw777zTjZ5s3YPNhQtgWS+tMEiCtQL13ygUZ6sy//2IDgrIOa8pDGGEpDPqjmntoOiUsqA7bKFc6JSL0TAo+eSTT5RxOnNtnxVouX7stnAAisUxB4zxmb8Aylp5rQSmriSKdpyTGRQXEkJGPgCnOzR65zsdFsYi6+VXJ66vr1d+z8xBKivQoGznnKZc7oRCQGAxrC8AhuJZHHPpyiUVULnqjuOcuiUhlIpRENBx0T60FR2dMCbMMdaNTKG2zvx/3JacNwWVvFWyAo34M/I28dHZEYZsyF644GhgaKbAXBTer95ipyxR/IY6o2AneY5RlDPfOwEdgKMutCPAg9SFy4ktEEM/eZ+Z8WlnAI15//nnn5fnnnsuL789w/K+ffsUpxe9gugOLgoW5Bogbg1EecgIws2UJsc5bUpUBu3L5oS2ZeApRHmaCz9nAA1EE8j25JNPZm1T0M4cDMhQLrHiiQshUuluiv3iJCWBh2ykYnCcM9XS3rjUENqcGMVcA8orr7yiAmWtI+EZQGttbVUnaGSm1fESTkMB3diIeFGy11n/ka1080ZLgOMco7bdZUYcR2QnZWKkAwfgAc8RWMi0mZGGx4k5VVVVpx59BtDI32xoaDh1oAEjHJ55hkQWuulR6EmgiQdiFUxAKNwps46Tho3rb1k64W7C3cYBs3Q2bdDmQJPq6urT8j3PABrOYJzp99xzjzC6gV6O8GMES5Wo6bNdKj3QEmCc5bBWJ4vlVOlQRHlimpublT0Pvjx2rB988IHy80KZoOUMoDGa0VOhpMLmwg1p3DUq2qhDPVyvz4rVcZ6rozAgtbS0qCRzgiDZGDGq5QQa3FfcxHSQqinBugHQtXexPmMZAcj0WjWoYweTOPKxjGAWRD+YteDQywk0mBxRJpEbWO7TIJr07hTRnWLz2S/ikGGR7T45AFahBydu1x1gozY1NUljY6Myg0AIlBNoZB6zlXXrFQiwDrYffZqfLRuoctBG4eM14l0DgI0dKQQwOYFGwCObgVx2NO/FCPkJ2Rb9LmmjzIhWuO0Y8UlqYiOQF2hMnbW1tSqXMw2W7pPTZsVpXGReaD31Gg2VY+5ha2/kfw1wig4dkrVr3qmTzQC2NOSBBx5Ivg4zRrRTJMUuNgLJV0awNWBtRh4wlgrWaHk3A9q8gYGWtRrJKUnfFKgR7D+PU2llb+lxaLfsP4bSSz3Z0YJttmQ9nZPwPv/8c3UGAeezFzRvWA22MDwSX8RJtGlO6U9Wk8artLikWJMxKGm3ky2DbaYLih0E6zbsRsSoFVOeYryaNF6lAWB1dXUCwQtMBlza923LBZXLqc5Ix7SKy4Hjj4cMGRKbSNJ4NUG6SwM+mCZxv2FGwvqfmYlvy6leKEwI0wcvIWoBTgkuw9KdbnAxLcLvxmKf7C19mAV+zWxiK0zIbuAj0Zi8nHOhQDlgg50ZMrZcBUh3c6SrdvgtGVSwixF9y5IJl2QhQ77twEfU5TSUm2BIYua5WNMRzYAdhQuPftJ3remCUPbakPzbvKtZmnY2qTYkuBFQMXAQoWJXbIdy80CvySmEjeiL0Y7AOAybOm6J2KViC/e221Bh/I6pEMc3xmeu1pZW6dmrpwoH01ehkO1c5XSUnEK6HfFnNTU1vtSbaBAqRK+hggTMMeoRnYm9hYv3ccUlVc2Xikf8EJY3hN0T9sXV9kebtP3ZpmYYvBp0eO3d8GvWyZUTHFkCsap4W5tSAMrQNE+auZqdDNG8XDrphXQ2I/9rAJMT7h6WLkxZfGa00he5szq+X3doOneQenSUQBwlJQIxTShNXyhPK5MoTkZChnUAqS96ozVvlO9JDtYk4BQ7lTXxWudf6pQ4rAPoA13ojqg7pu6kfo1STjq3I0qEuJK8YMNDwVrZ/NVJsDoTXmfDE7+us9+t9Aqaq8JKlgIocxHCaBIYlG1NxrESu1jJXDKZizR/BmXXHBqaS8TKL2KlhWBNqxKtu3aTbt27nepEdCw6lM6X5XvcxBHJC4VPOm0VDaupAKxkMZqrouNoh3QcO8lKpMGg2Xz4q+isjneeorHiu1UAmgYeoP6fluokJRX/B5j1X80IxF8rIYsGvpUewspaFDcg5SuPY9oqHmaI+JLUxPEoqysiPkMtGo/GS1IpXFGLGrLkJDVxPMrqiiyZohv693g0YBJK4Zr+ncqZAy2S0MTxKKOnAy3MET3xaMQklMLTET1U0Bw6loRmjraMng8d02YOc4xitA0Z97f7coyiORg27s0cffl8ORiWapijrqNvzLiWwLejrqng2rVrlZtm3Lhxca2vKVdEGoBCAz/x6NGj85ag4AnE3E1EBbuKfCfMRlRP89qINcBmkYNPCEfKJ7aAxgMWL16s8gLIfjJiNIAGNm/erHIKSBouJLaBRr4nCcWZ3LaFXmD+P70aIK0OIheSkgqJbaDxIB5MoqhJIi6k1vT/PyMZieV2Bx5HQCOfk0TiGTNmpF+TpoZ5NbBw4UJFTWWXKsMR0HgzAZHsPknDMlKcGsC2ym4z27mcuTTiGGjEqTGycYSPkeLUAEfw6Gx1uxpwDDS9VoP7CuZuI8WlAagw4NCzuzbT2nEFNGgQWAjOnj27uLRsaivz5s1TTI5OGdtdAQ19Y1eD7mDkyJFG/UWiAZznu3btsmU3y1SJa6CRbY63YM6cOUV9ckiRYEylOc6dO1d5AWDcdiqugcaL8IGSJT158mSn7zW/T5gGli1bppKVC/k0fdt1Zj4IcwdzttkYJAw5DorLBoA1uRNzhm9Tp34QNhUovykEGeFG0qUBMugZTCZNmuTJdupp6tQqXb16teKKMFNoukBGbZgyoWEYO3asp8r5AjRtWyOyA35bI+nQwMaNG+Xbb791bDPLVnvfgEakJTYWTlyBd8tIsjUAj8b8+fOVrRQONa/iG9AoCGzN9ALO0zaEel6bJrr7IbkhD2DYsGG+zVC+Ag3VrFq1Sq3XOHHFSDI1AIcG6zIOMvFLfAcaBeNAA4x6Y8aM8auc5jkhaWDNmjWK+nXatGm+vjEQoLElXrBggRp2Tzs709eim4f5rQFop1j+zJo1y3dTVSBAQwHw0xJOwvlAHHphJN4a4KCwlStXqvAveG79lsCARkHhwoVKfurUqeZ0Fb9bzsfnEZa9ZMkSmTlzpjobIggJFGgUmKQWIj2mT59e8NSNICponplfAxD5LFq0SEVk2EkycavPwIFGwYhfW7p0qVpgmhBwt03l/324D9m4TZkyxXF8mdPShAI0CrV161Y1sjGNOg2ac1op8/vCGqDzM10ykoWR1RYa0Kg6PYjKTZgwQQYPHlxYG+YXgWiAvI8VK1aoTh/WDBMq0NAaFJRMo1idOWjWSLgaWL9+vfLeMF1yNldYEjrQqBjBklif8aExuhkJRwOMYvik8dq4PVTMbUkjARqF5UAIQlA46YRYJ04DMRKMBgjDJmaQ01gI5YriwIzIgKZVSuQmQ/nEiRONrS0AnGEjW758uVqqEAkdlUQONCqulUE826hRo6LSRereu27dOsX4E4dOHAug0cJEfLCGYCodP368iWnzAHtiyaDuZ6pkDRyHo8djAzSt14aGBqUkhnmYi4w40wB8/yxH6KzV1dXObg7w17EDGnXlYFPyEFjEEmpU6MD4APWTmEfjSiLEh00V8f2c2RkniSXQtIKgyCJ3FEcvIxwHnxo5XQOc2cUIRgADnXLQoEGxVFGsgabNIDBNMiVALIOR16T1iRDzh/EVwhWWGDAvRmG2sIvq2ANNVwQjb21traLMAnA1NTVFCTgAVl9frwAGddTNN98cuvHVLrisv0sM0HSh9+zZI3V1dQpwLHa5imFKZYpko8QFwEaMGCGcaJMUSRzQtGJRPIZeFK/ZwtO4aWCRr9mv6VQYXpPYsRILNA04DtqgIYhI4DOLYULH47brcjLysOsmtLqxsVEdFkGkC8ZsPidVEg80q+Kbm5tV40BKwrRCnBVXEkAHuIjZ42J5AGkOnaZv375JxdZp5U4V0Kw1I4ScRsO9hYWcabVfv36KPLC8vDzyxjt69KgitWtqahKmRzwiLAHoGEGGVEdV8dQCzarQlpYW1Zg0LPYmwpOqqqqUm4v8U7J+SkpKAmuDzs5OlRVGviTuodbWVhWug30Q4NMJ+vTpE9j74/DgogCaVdGEJwE8AjBpdBofEDDVcp5RZWWlMhdgYcdH2LVrV6moqFCjYFlZmQIk9iqeA4A6OjqE0am9vV2OHDmifLZ4NDDHcGAq52gxFQJmQA24CTgEWHG2e/kNzqIDWjYFAhrAACgAByABLIAGuxUXgOICXPwekAA6wMeFEZkLcAJSwApoAS8gLiZQZdOxAZrfXdc8L6sGDNAMMELRgAFaKGo2LzFAMxgIRQMGaKGo2bzEAM1gIBQNGKCFombzEgM0g4FQNPAvDOiG9spO3z4AAAAASUVORK5CYII=;" vertex="1" parent="7">
                    <mxGeometry x="470" y="60" width="244" height="251.92" as="geometry"/>
                </mxCell>
            </root>
        </mxGraphModel>
    </diagram>
</mxfile>